<svg xmlns="http://www.w3.org/2000/svg" width="228.261" height="79.145" viewBox="0 0 228.261 79.145">
  <g id="Group_110" data-name="Group 110" transform="translate(-150.367 -20.616)">
    <g id="XMLID_44_" transform="translate(152 21.622)">
      <path id="XMLID_55_" d="M325.515,237.23a2.459,2.459,0,0,1-1.961,2.214L307.3,241.594l-15.37,52.815-55.471,7.97a3.046,3.046,0,0,1-2.277-2.467c-.19-1.139.443-2.087,1.455-3.036l51.55-7.464,15.876-51.486,19.924-2.846A2.171,2.171,0,0,1,325.515,237.23Z" transform="translate(-225.199 -235.044)" fill="none" stroke="#fff" stroke-miterlimit="10" stroke-width="2"/>
      <g id="XMLID_50_" transform="translate(0 11.863)">
        <path id="XMLID_54_" d="M288.438,253.8,220,263.667l20.3,33.776L278.254,292Z" transform="translate(-220 -253.8)" fill="none" stroke="#fff" stroke-miterlimit="10" stroke-width="2"/>
        <path id="XMLID_53_" d="M313.626,264.5,298,266.777c-2.657,0-4.3,2.214-4.111,3.8.253,1.645,2.467,3.289,5,2.53,4.3-.633,12.9-1.834,12.9-1.834" transform="translate(-247.149 -257.732)" fill="none" stroke="#fff" stroke-miterlimit="10" stroke-width="2"/>
        <path id="XMLID_52_" d="M307.109,279.9l-20.873,3.036c-2.53.569-3.669,2.973-3.036,4.491.506,1.2,2.151,1.9,3.922,1.645l18.406-2.657" transform="translate(-243.162 -263.391)" fill="none" stroke="#fff" stroke-miterlimit="10" stroke-width="2"/>
        <path id="XMLID_51_" d="M303.2,296.2l-21.379,3.1c-2.214.316-3.732,2.214-3.352,3.922.316,1.581,2.214,2.657,4.238,2.4,6.135-.885,18.659-2.657,18.659-2.657" transform="translate(-241.464 -269.382)" fill="none" stroke="#fff" stroke-miterlimit="10" stroke-width="2"/>
      </g>
      <circle id="XMLID_49_" cx="4.238" cy="4.238" r="4.238" transform="translate(53.004 63.476)" fill="none" stroke="#fff" stroke-miterlimit="10" stroke-width="2"/>
      <circle id="XMLID_48_" cx="2.214" cy="2.214" r="2.214" transform="translate(18.659 70.687)" fill="none" stroke="#fff" stroke-miterlimit="10" stroke-width="1"/>
      <circle id="XMLID_47_" cx="2.214" cy="2.214" r="2.214" transform="translate(55.028 65.5)" fill="none" stroke="#fff" stroke-miterlimit="10" stroke-width="1"/>
      <circle id="XMLID_46_" cx="4.238" cy="4.238" r="4.238" transform="translate(16.698 68.663)" fill="none" stroke="#fff" stroke-miterlimit="10" stroke-width="2"/>
      <path id="XMLID_45_" d="M307.8,257" transform="translate(-252.266 -243.112)" fill="none" stroke="#fff" stroke-miterlimit="10" stroke-width="2"/>
    </g>
    <g id="XMLID_30_" transform="translate(227.648 40.949)">
      <path id="XMLID_2_" d="M354.591,310.784a1.148,1.148,0,0,1,.38.885,1.249,1.249,0,0,1-.38.886,1.148,1.148,0,0,1-.885.379h-5.44V315.4a7.458,7.458,0,0,1-.569,2.91,7.432,7.432,0,0,1-3.922,3.922,7.458,7.458,0,0,1-2.91.569,1.249,1.249,0,0,1-.885-.38,1.265,1.265,0,0,1,.885-2.151,5.154,5.154,0,0,0,1.961-.38,5.11,5.11,0,0,0,2.657-2.657,4.84,4.84,0,0,0,.38-1.9V283.965a1.249,1.249,0,0,1,.379-.885,1.148,1.148,0,0,1,.886-.38,1.249,1.249,0,0,1,.885.38,1.148,1.148,0,0,1,.38.885V310.4h5.44A1.093,1.093,0,0,1,354.591,310.784Z" transform="translate(-339.6 -271.884)" fill="#fff"/>
      <path id="XMLID_4_" d="M424.881,304.708a1.249,1.249,0,0,1,.885.38,1.148,1.148,0,0,1,.38.885,1.249,1.249,0,0,1-.38.885,1.148,1.148,0,0,1-.885.38H360.365a1.249,1.249,0,0,1-.886-.38,1.148,1.148,0,0,1-.38-.885,1.249,1.249,0,0,1,.38-.885,1.148,1.148,0,0,1,.886-.38h43.643a4.622,4.622,0,0,0,1.9-.379,5.387,5.387,0,0,0,1.581-1.075,4.671,4.671,0,0,0,1.075-1.581,4.84,4.84,0,0,0,.38-1.9V288.642a11.447,11.447,0,0,0-.885-4.364,11.381,11.381,0,0,0-5.946-5.946,10.978,10.978,0,0,0-4.364-.886H378.139a7.458,7.458,0,0,1-2.91-.569,7.633,7.633,0,0,1-2.34-1.581,7.29,7.29,0,0,1-1.581-2.34,7.459,7.459,0,0,1-.569-2.91v-1.581a1.249,1.249,0,0,1,.379-.885,1.265,1.265,0,0,1,2.151.885v1.581a4.622,4.622,0,0,0,.38,1.9,5.387,5.387,0,0,0,1.075,1.581A4.671,4.671,0,0,0,376.3,274.6a5.155,5.155,0,0,0,1.961.38h19.608a13.436,13.436,0,0,1,5.25,1.075,14.731,14.731,0,0,1,4.428,2.973,13.986,13.986,0,0,1,2.973,4.428,13.384,13.384,0,0,1,1.012,5.25v11.132a7.7,7.7,0,0,1-.506,2.72,7.291,7.291,0,0,1-1.392,2.214h15.243Zm-40.417,7.78a3.3,3.3,0,0,1,.253-1.328,3.915,3.915,0,0,1,.7-1.075,2.441,2.441,0,0,1,1.075-.7,2.934,2.934,0,0,1,1.328-.253,3.3,3.3,0,0,1,1.328.253,3.916,3.916,0,0,1,1.075.7,2.441,2.441,0,0,1,.7,1.075,2.934,2.934,0,0,1,.253,1.328,3.3,3.3,0,0,1-.253,1.328,3.916,3.916,0,0,1-.7,1.075,3.307,3.307,0,0,1-1.075.759,3.11,3.11,0,0,1-1.328.253,3.3,3.3,0,0,1-1.328-.253,4.155,4.155,0,0,1-1.075-.759,2.44,2.44,0,0,1-.7-1.075A3.3,3.3,0,0,1,384.464,312.488Z" transform="translate(-346.766 -266.188)" fill="#fff"/>
      <path id="XMLID_7_" d="M494.256,304.5a1.148,1.148,0,0,1,.38.886,1.249,1.249,0,0,1-.38.885,1.148,1.148,0,0,1-.885.38h-1.012a7.6,7.6,0,0,1-3.605-.885,7.448,7.448,0,0,1-2.657-2.4,6.957,6.957,0,0,1-2.657,2.4,7.6,7.6,0,0,1-3.605.885H461.365a1.249,1.249,0,0,1-.885-.38,1.148,1.148,0,0,1-.38-.885,1.249,1.249,0,0,1,.38-.886,1.148,1.148,0,0,1,.885-.379h18.469a4.622,4.622,0,0,0,1.9-.38,5.11,5.11,0,0,0,2.657-2.657,4.841,4.841,0,0,0,.38-1.9V275.657a1.249,1.249,0,0,1,.38-.885,1.265,1.265,0,0,1,2.151.885v23.529a4.622,4.622,0,0,0,.38,1.9,5.11,5.11,0,0,0,2.657,2.657,4.841,4.841,0,0,0,1.9.38h1.012A1.335,1.335,0,0,1,494.256,304.5Zm-27.577-34.219a3.916,3.916,0,0,0,.7,1.075,3.307,3.307,0,0,0,1.075.759,2.935,2.935,0,0,0,1.328.253,3.58,3.58,0,0,0,3.163-2.087,2.934,2.934,0,0,0,.253-1.328,3.111,3.111,0,0,0-.253-1.328,4.155,4.155,0,0,0-.759-1.075,2.44,2.44,0,0,0-1.075-.7,2.934,2.934,0,0,0-1.328-.253,3.3,3.3,0,0,0-1.328.253,3.915,3.915,0,0,0-1.075.7,2.44,2.44,0,0,0-.7,1.075,3.613,3.613,0,0,0,0,2.657Zm8.6,0a3.916,3.916,0,0,0,.7,1.075,3.439,3.439,0,0,0,3.732.759,4.156,4.156,0,0,0,1.075-.759,2.442,2.442,0,0,0,.7-1.075,2.934,2.934,0,0,0,.253-1.328,3.112,3.112,0,0,0-.253-1.328,3.918,3.918,0,0,0-.7-1.075,2.441,2.441,0,0,0-1.075-.7,2.934,2.934,0,0,0-1.328-.253,3.3,3.3,0,0,0-1.328.253,3.157,3.157,0,0,0-1.075.7,2.44,2.44,0,0,0-.7,1.075,3.613,3.613,0,0,0,0,2.657Z" transform="translate(-383.882 -265.6)" fill="#fff"/>
      <path id="XMLID_11_" d="M548.42,284.144a16.374,16.374,0,0,1,3.542,5.25,15.694,15.694,0,0,1,1.2,6.2,15.915,15.915,0,0,1-1.2,6.2,15.411,15.411,0,0,1-3.542,5.25,15.924,15.924,0,0,1-5.187,3.479,15.694,15.694,0,0,1-6.2,1.2,15.831,15.831,0,0,1-11.385-4.681,15.241,15.241,0,0,1-3.226-4.617l-.569,1.708c-.253.569-.443,1.139-.759,1.708a15.233,15.233,0,0,1-1.455,2.277,11.107,11.107,0,0,1-1.961,1.9,9.971,9.971,0,0,1-2.024,1.2,4.261,4.261,0,0,1-1.771.443h-2.72a1.249,1.249,0,0,1-.885-.379,1.148,1.148,0,0,1-.38-.886,1.249,1.249,0,0,1,.38-.886,1.148,1.148,0,0,1,.885-.379h2.72a2.383,2.383,0,0,0,.885-.253,6.386,6.386,0,0,0,1.455-.885,11.471,11.471,0,0,0,1.518-1.518,10.536,10.536,0,0,0,1.139-1.771,20.934,20.934,0,0,0,2.087-9.171A16.181,16.181,0,0,1,530.9,280.6a15.7,15.7,0,0,1,6.2-1.2,15.916,15.916,0,0,1,6.2,1.2A17.7,17.7,0,0,1,548.42,284.144Zm-11.385,25.047a13.521,13.521,0,1,0-5.313-1.075A13.513,13.513,0,0,0,537.035,309.191Z" transform="translate(-402.183 -270.671)" fill="#fff"/>
    </g>
  </g>
</svg>
